<?xml version="1.0" encoding="UTF-8"?>
<svg viewBox="0 0 416.92874 424.82159" xmlns="http://www.w3.org/2000/svg">
 <defs>
  <filter id="h">
   <feGaussianBlur stdDeviation="10.42508"/>
  </filter>
  <filter id="c" x="-.01244" y="-.33629" width="1.0249" height="1.6726">
   <feGaussianBlur stdDeviation="1.47563"/>
  </filter>
  <linearGradient id="g" x1="392.2" x2="232.84" y1="469.78" y2="130.91" gradientUnits="userSpaceOnUse">
   <stop stop-color="#bf5e00" offset="0"/>
   <stop stop-color="#ebceb1" offset="1"/>
  </linearGradient>
  <linearGradient id="b" x1="179.38" x2="168.75" y1="172.61" y2="161.99" gradientUnits="userSpaceOnUse">
   <stop stop-color="#2e3436" offset="0"/>
   <stop stop-color="#888a85" offset="1"/>
  </linearGradient>
  <linearGradient id="a" x2="0" y1="165.03" y2="180.24" gradientUnits="userSpaceOnUse">
   <stop stop-color="#d3d7cf" offset="0"/>
   <stop stop-color="#555753" offset="1"/>
  </linearGradient>
  <linearGradient id="f" x1="525.93" x2="494.24" y1="187.43" y2="180.36" gradientUnits="userSpaceOnUse">
   <stop stop-color="#8e79a5" offset="0"/>
   <stop stop-color="#644a9b" offset="1"/>
  </linearGradient>
  <linearGradient id="e" x1="441.5" x2="469" y1="256.36" y2="245.86" gradientUnits="userSpaceOnUse">
   <stop stop-color="#00734d" offset="0"/>
   <stop stop-color="#00b377" offset="1"/>
  </linearGradient>
  <linearGradient id="d" x1="463" x2="440" y1="321.86" y2="339.36" gradientUnits="userSpaceOnUse">
   <stop stop-color="#e85752" offset="0"/>
   <stop stop-color="#bf0303" offset="1"/>
  </linearGradient>
 </defs>
 <g transform="translate(-107.56 -112.98)">
  <path d="m157.02 138v32.938h-20.938c-1.939 0-3.5 1.561-3.5 3.5s1.561 3.5 3.5 3.5h20.938v0.25l-1.2812 0.40625v7l1.2812-0.40625v16.531h-20.938c-1.939 0-3.5 1.561-3.5 3.5s1.561 3.5 3.5 3.5h20.938v0.28125l-1.2812 0.40625v7l1.2812-0.40625v16.531h-20.938c-1.939 0-3.5 1.561-3.5 3.5s1.561 3.5 3.5 3.5h20.938v0.25l-1.2812 0.40625v7l1.2812-0.40625v16.562h-20.938c-1.939 0-3.5 1.561-3.5 3.5s1.561 3.5 3.5 3.5h20.938v0.25l-1.2812 0.40625v7l1.2812-0.40625v16.531h-20.938c-1.939 0-3.5 1.561-3.5 3.5s1.561 3.5 3.5 3.5h20.938v0.28125l-1.2812 0.40625v7l1.2812-0.40625v16.531h-20.938c-1.939 0-3.5 1.561-3.5 3.5s1.561 3.5 3.5 3.5h20.938v0.25l-1.2812 0.40625v7l1.2812-0.40625v16.531h-20.938c-1.939 0-3.5 1.561-3.5 3.5s1.561 3.5 3.5 3.5h20.938v0.28125l-1.2812 0.40625v7l1.2812-0.40625v16.531h-20.938c-1.939 0-3.5 1.561-3.5 3.5s1.561 3.5 3.5 3.5h20.938v0.25l-1.2812 0.40625v7l1.2812-0.40625v16.562h-20.938c-1.939 0-3.5 1.561-3.5 3.5s1.561 3.5 3.5 3.5h20.938v0.25l-1.2812 0.40625v7l1.2812-0.40625v16.531h-20.938c-1.939 0-3.5 1.561-3.5 3.5s1.561 3.5 3.5 3.5h20.938v0.28125l-1.2812 0.40625v7l1.2812-0.40625v16.531h-20.938c-1.939 0-3.5 1.561-3.5 3.5s1.561 3.5 3.5 3.5h20.938v0.25l-1.2812 0.40625v7l1.2812-0.40625v16.531h2.6562v3.0625h262.06c8.4644 0 16.072-3.6113 21.469-9.375 7.174-5.5347 11.781-14.201 11.781-24v-117.97h13.344c10.944 0 19.75-8.8058 19.75-19.75v-25.5c0-1.3142-0.13246-2.6026-0.375-3.8438 3.1656-2.7646 5.484-6.5416 6.375-11l5-25c1.537-7.6907-1.5994-15.17-7.4375-19.594 0.27524-1.3182 0.4375-2.6602 0.4375-4.0625v-25.5c0-10.944-8.8058-19.75-19.75-19.75h-17.344v-39.156c0-16.789-13.524-30.281-30.312-30.281h-267.66z" fill="#888a85" filter="url(#h)"/>
  <path transform="rotate(11.302)" d="m473 147.86h42.49a19.755 19.755 0 0 1 19.755 19.755v25.49a19.755 19.755 0 0 1 -19.755 19.755h-42.49a19.755 19.755 0 0 1 -19.755 -19.755v-25.49a19.755 19.755 0 0 1 19.755 -19.755" fill="url(#f)"/>
  <path d="m418.75 289.36h42.49a19.755 19.755 0 0 1 19.755 19.755v25.49a19.755 19.755 0 0 1 -19.755 19.755h-42.49a19.755 19.755 0 0 1 -19.755 -19.755v-25.49a19.755 19.755 0 0 1 19.755 -19.755" fill="url(#d)"/>
  <path d="m422.75 200.36h42.49a19.755 19.755 0 0 1 19.755 19.755v25.49a19.755 19.755 0 0 1 -19.755 19.755h-42.49a19.755 19.755 0 0 1 -19.755 -19.755v-25.49a19.755 19.755 0 0 1 19.755 -19.755" fill="url(#e)"/>
  <path d="m149.95 130.91v371.72h267.66c16.789 0 30.312-13.524 30.312-30.312v-311.12c0-16.789-13.524-30.281-30.312-30.281h-267.66z" fill="url(#g)"/>
  <path d="m151.59 136.17v8.0938h272.39c4.3278 0 8.4529 0.85646 12.209 2.4375-5.4357-6.4509-13.492-10.531-22.52-10.531h-262.07z" fill="#fff" filter="url(#c)" opacity=".7"/>
  <path transform="matrix(1 0 0 -1 -1 641.87)" d="m153.59 136.17v8.0938h272.39c4.3278 0 8.4529 0.85646 12.209 2.4375-5.4357-6.4509-13.492-10.531-22.52-10.531h-262.07z" fill="#2e3436" filter="url(#c)" opacity=".34866"/>
  <g transform="translate(0 7.6294e-6)">
   <path d="m169.94 164.78c-0.21737 0.0232-0.45669 0.0823-0.6875 0.15625l-20.594 6.5938v7l20.594-6.5938c1.8465-0.59169 3.3438-2.6235 3.3438-4.5625 0-1.6966-1.1347-2.756-2.6562-2.5938z" fill="#888a85" opacity=".45594"/>
   <path transform="translate(-2.75,.25)" d="m179.38 167.3c0 2.934-2.3785 5.3125-5.3125 5.3125s-5.3125-2.3785-5.3125-5.3125 2.3785-5.3125 5.3125-5.3125 5.3125 2.3785 5.3125 5.3125z" fill="url(#b)" opacity=".72"/>
   <path d="m129 163.86h40.444a3.5 3.5 0 0 1 3.5 3.5 3.5 3.5 0 0 1 -3.5 3.5h-40.444a3.5 3.5 0 0 1 -3.5 -3.5 3.5 3.5 0 0 1 3.5 -3.5" fill="url(#a)"/>
  </g>
  <g transform="translate(0 30.8)">
   <path d="m169.94 164.78c-0.21737 0.0232-0.45669 0.0823-0.6875 0.15625l-20.594 6.5938v7l20.594-6.5938c1.8465-0.59169 3.3438-2.6235 3.3438-4.5625 0-1.6966-1.1347-2.756-2.6562-2.5938z" fill="#888a85" opacity=".45594"/>
   <path transform="translate(-2.75,.25)" d="m179.38 167.3c0 2.934-2.3785 5.3125-5.3125 5.3125s-5.3125-2.3785-5.3125-5.3125 2.3785-5.3125 5.3125-5.3125 5.3125 2.3785 5.3125 5.3125z" fill="url(#b)" opacity=".72"/>
   <path d="m129 163.86h40.444a3.5 3.5 0 0 1 3.5 3.5 3.5 3.5 0 0 1 -3.5 3.5h-40.444a3.5 3.5 0 0 1 -3.5 -3.5 3.5 3.5 0 0 1 3.5 -3.5" fill="url(#a)"/>
  </g>
  <g transform="translate(0 61.6)">
   <path d="m169.94 164.78c-0.21737 0.0232-0.45669 0.0823-0.6875 0.15625l-20.594 6.5938v7l20.594-6.5938c1.8465-0.59169 3.3438-2.6235 3.3438-4.5625 0-1.6966-1.1347-2.756-2.6562-2.5938z" fill="#888a85" opacity=".45594"/>
   <path transform="translate(-2.75,.25)" d="m179.38 167.3c0 2.934-2.3785 5.3125-5.3125 5.3125s-5.3125-2.3785-5.3125-5.3125 2.3785-5.3125 5.3125-5.3125 5.3125 2.3785 5.3125 5.3125z" fill="url(#b)" opacity=".72"/>
   <path d="m129 163.86h40.444a3.5 3.5 0 0 1 3.5 3.5 3.5 3.5 0 0 1 -3.5 3.5h-40.444a3.5 3.5 0 0 1 -3.5 -3.5 3.5 3.5 0 0 1 3.5 -3.5" fill="url(#a)"/>
  </g>
  <g transform="translate(0,92.4)">
   <path d="m169.94 164.78c-0.21737 0.0232-0.45669 0.0823-0.6875 0.15625l-20.594 6.5938v7l20.594-6.5938c1.8465-0.59169 3.3438-2.6235 3.3438-4.5625 0-1.6966-1.1347-2.756-2.6562-2.5938z" fill="#888a85" opacity=".45594"/>
   <path transform="translate(-2.75,.25)" d="m179.38 167.3c0 2.934-2.3785 5.3125-5.3125 5.3125s-5.3125-2.3785-5.3125-5.3125 2.3785-5.3125 5.3125-5.3125 5.3125 2.3785 5.3125 5.3125z" fill="url(#b)" opacity=".72"/>
   <path d="m129 163.86h40.444a3.5 3.5 0 0 1 3.5 3.5 3.5 3.5 0 0 1 -3.5 3.5h-40.444a3.5 3.5 0 0 1 -3.5 -3.5 3.5 3.5 0 0 1 3.5 -3.5" fill="url(#a)"/>
  </g>
  <g transform="translate(0,123.2)">
   <path d="m169.94 164.78c-0.21737 0.0232-0.45669 0.0823-0.6875 0.15625l-20.594 6.5938v7l20.594-6.5938c1.8465-0.59169 3.3438-2.6235 3.3438-4.5625 0-1.6966-1.1347-2.756-2.6562-2.5938z" fill="#888a85" opacity=".45594"/>
   <path transform="translate(-2.75,.25)" d="m179.38 167.3c0 2.934-2.3785 5.3125-5.3125 5.3125s-5.3125-2.3785-5.3125-5.3125 2.3785-5.3125 5.3125-5.3125 5.3125 2.3785 5.3125 5.3125z" fill="url(#b)" opacity=".72"/>
   <path d="m129 163.86h40.444a3.5 3.5 0 0 1 3.5 3.5 3.5 3.5 0 0 1 -3.5 3.5h-40.444a3.5 3.5 0 0 1 -3.5 -3.5 3.5 3.5 0 0 1 3.5 -3.5" fill="url(#a)"/>
  </g>
  <g transform="translate(0,154)">
   <path d="m169.94 164.78c-0.21737 0.0232-0.45669 0.0823-0.6875 0.15625l-20.594 6.5938v7l20.594-6.5938c1.8465-0.59169 3.3438-2.6235 3.3438-4.5625 0-1.6966-1.1347-2.756-2.6562-2.5938z" fill="#888a85" opacity=".45594"/>
   <path transform="translate(-2.75,.25)" d="m179.38 167.3c0 2.934-2.3785 5.3125-5.3125 5.3125s-5.3125-2.3785-5.3125-5.3125 2.3785-5.3125 5.3125-5.3125 5.3125 2.3785 5.3125 5.3125z" fill="url(#b)" opacity=".72"/>
   <path d="m129 163.86h40.444a3.5 3.5 0 0 1 3.5 3.5 3.5 3.5 0 0 1 -3.5 3.5h-40.444a3.5 3.5 0 0 1 -3.5 -3.5 3.5 3.5 0 0 1 3.5 -3.5" fill="url(#a)"/>
  </g>
  <g transform="translate(0,184.8)">
   <path d="m169.94 164.78c-0.21737 0.0232-0.45669 0.0823-0.6875 0.15625l-20.594 6.5938v7l20.594-6.5938c1.8465-0.59169 3.3438-2.6235 3.3438-4.5625 0-1.6966-1.1347-2.756-2.6562-2.5938z" fill="#888a85" opacity=".45594"/>
   <path transform="translate(-2.75,.25)" d="m179.38 167.3c0 2.934-2.3785 5.3125-5.3125 5.3125s-5.3125-2.3785-5.3125-5.3125 2.3785-5.3125 5.3125-5.3125 5.3125 2.3785 5.3125 5.3125z" fill="url(#b)" opacity=".72"/>
   <path d="m129 163.86h40.444a3.5 3.5 0 0 1 3.5 3.5 3.5 3.5 0 0 1 -3.5 3.5h-40.444a3.5 3.5 0 0 1 -3.5 -3.5 3.5 3.5 0 0 1 3.5 -3.5" fill="url(#a)"/>
  </g>
  <g transform="translate(0,215.6)">
   <path d="m169.94 164.78c-0.21737 0.0232-0.45669 0.0823-0.6875 0.15625l-20.594 6.5938v7l20.594-6.5938c1.8465-0.59169 3.3438-2.6235 3.3438-4.5625 0-1.6966-1.1347-2.756-2.6562-2.5938z" fill="#888a85" opacity=".45594"/>
   <path transform="translate(-2.75,.25)" d="m179.38 167.3c0 2.934-2.3785 5.3125-5.3125 5.3125s-5.3125-2.3785-5.3125-5.3125 2.3785-5.3125 5.3125-5.3125 5.3125 2.3785 5.3125 5.3125z" fill="url(#b)" opacity=".72"/>
   <path d="m129 163.86h40.444a3.5 3.5 0 0 1 3.5 3.5 3.5 3.5 0 0 1 -3.5 3.5h-40.444a3.5 3.5 0 0 1 -3.5 -3.5 3.5 3.5 0 0 1 3.5 -3.5" fill="url(#a)"/>
  </g>
  <g transform="translate(0,246.4)">
   <path d="m169.94 164.78c-0.21737 0.0232-0.45669 0.0823-0.6875 0.15625l-20.594 6.5938v7l20.594-6.5938c1.8465-0.59169 3.3438-2.6235 3.3438-4.5625 0-1.6966-1.1347-2.756-2.6562-2.5938z" fill="#888a85" opacity=".45594"/>
   <path transform="translate(-2.75,.25)" d="m179.38 167.3c0 2.934-2.3785 5.3125-5.3125 5.3125s-5.3125-2.3785-5.3125-5.3125 2.3785-5.3125 5.3125-5.3125 5.3125 2.3785 5.3125 5.3125z" fill="url(#b)" opacity=".72"/>
   <path d="m129 163.86h40.444a3.5 3.5 0 0 1 3.5 3.5 3.5 3.5 0 0 1 -3.5 3.5h-40.444a3.5 3.5 0 0 1 -3.5 -3.5 3.5 3.5 0 0 1 3.5 -3.5" fill="url(#a)"/>
  </g>
  <g transform="translate(0,277.2)">
   <path d="m169.94 164.78c-0.21737 0.0232-0.45669 0.0823-0.6875 0.15625l-20.594 6.5938v7l20.594-6.5938c1.8465-0.59169 3.3438-2.6235 3.3438-4.5625 0-1.6966-1.1347-2.756-2.6562-2.5938z" fill="#888a85" opacity=".45594"/>
   <path transform="translate(-2.75,.25)" d="m179.38 167.3c0 2.934-2.3785 5.3125-5.3125 5.3125s-5.3125-2.3785-5.3125-5.3125 2.3785-5.3125 5.3125-5.3125 5.3125 2.3785 5.3125 5.3125z" fill="url(#b)" opacity=".72"/>
   <path d="m129 163.86h40.444a3.5 3.5 0 0 1 3.5 3.5 3.5 3.5 0 0 1 -3.5 3.5h-40.444a3.5 3.5 0 0 1 -3.5 -3.5 3.5 3.5 0 0 1 3.5 -3.5" fill="url(#a)"/>
  </g>
  <g transform="translate(0,308)">
   <path d="m169.94 164.78c-0.21737 0.0232-0.45669 0.0823-0.6875 0.15625l-20.594 6.5938v7l20.594-6.5938c1.8465-0.59169 3.3438-2.6235 3.3438-4.5625 0-1.6966-1.1347-2.756-2.6562-2.5938z" fill="#888a85" opacity=".45594"/>
   <path transform="translate(-2.75,.25)" d="m179.38 167.3c0 2.934-2.3785 5.3125-5.3125 5.3125s-5.3125-2.3785-5.3125-5.3125 2.3785-5.3125 5.3125-5.3125 5.3125 2.3785 5.3125 5.3125z" fill="url(#b)" opacity=".72"/>
   <path d="m129 163.86h40.444a3.5 3.5 0 0 1 3.5 3.5 3.5 3.5 0 0 1 -3.5 3.5h-40.444a3.5 3.5 0 0 1 -3.5 -3.5 3.5 3.5 0 0 1 3.5 -3.5" fill="url(#a)"/>
  </g>
  <path d="m163.97 146.6v37.267c19.264 0.58205 38.682-4.5034 55.139-14.539 0.72698-7.5627 1.4619-15.148 2.0975-22.728h-57.236zm67.436 0c-0.9875 19.268-1.5861 38.571-0.54592 57.839 1.025 3.5343-1.1283 10.893 4.195 10.229 20.118 1.1502 40.521-3.9618 57.725-14.453 1.7141-17.832 3.5346-35.693 3.764-53.616h-65.138zm76.171 0c0.01 6.9934 0.16866 13.987 0.54593 20.975 1.025 3.5342-1.1283 10.922 4.195 10.258 20.118 1.1502 40.55-3.9618 57.753-14.453 0.5376-5.5925 1.0455-11.178 1.5516-16.78h-64.046zm74.505 0c-0.79804 17.289-1.1917 34.607-0.2586 51.892 1.025 3.5342-1.1283 10.922 4.195 10.258 17.894 1.0231 36.024-2.9139 51.92-11.177v-23.13c0-15.436-12.434-27.842-27.871-27.842h-27.986zm-6.235 16.493s-27.38 21.91-67.925 17.527c5.479 7.6706-2.2124 76.717-2.2124 76.717 15.889-17.533 70.137 0 70.137 0-5.479-18.629 0-94.244 0-94.244zm-150.96 5.9477s-24.257 19.385-60.914 18.016v70.597c21.466-7.1279 60.914 5.6029 60.914 5.6029-5.479-18.629 0-94.215 0-94.215zm73.7 30.888s-27.38 21.91-67.925 17.527c5.479 7.6707-2.2124 76.717-2.2124 76.717 15.889-17.533 70.137 0 70.137 0-5.479-18.629 0-94.244 0-94.244zm139.35 1.178c-11.705 5.9606-31.541 13.109-56.317 10.43 5.479 7.6707-2.2124 76.688-2.2124 76.688 11.258-12.423 41.699-7.265 58.529-3.1894v-83.929zm-111.11 52.581c-6.0617 0.0835-12.153 1.0039-17.355 4.2238-3.2762 26.005-6.5325 52.114-6.8672 78.355 0.80058 3.6556-1.9124 11.002 3.5342 10.689 20.336 2.5304 41.396-1.2669 59.563-10.746 3.4516-21.051 7.0832-42.16 8.074-63.5 0.50233-5.4176 0.53157-11.762-6.5511-11.694-11.179-3.5055-22.647-6.3491-34.365-7.1832-1.977-0.10916-4.0133-0.1715-6.0339-0.14367zm-150.96 5.9477c-4.0442 0.0557-8.0946 0.48565-11.895 1.724v92.233c17.533 0.61982 35.214-3.3183 50.771-11.436 3.4515-21.051 7.0832-42.16 8.074-63.5 0.50233-5.4176 0.53156-11.762-6.5511-11.694-11.179-3.5055-22.647-6.3491-34.365-7.1832-1.977-0.10916-4.0134-0.17151-6.0339-0.14367zm224.66 24.94c-6.0617 0.0835-12.153 1.0327-17.355 4.2525-3.2762 26.005-6.5325 52.085-6.8672 78.326 0.80059 3.6556-1.9124 11.031 3.5342 10.717 19.798 2.4635 40.264-1.1209 58.098-10.057v-76.803c-10.232-3.077-20.702-5.5039-31.376-6.2638-1.977-0.10915-4.0134-0.20023-6.0339-0.1724zm-150.96 5.9477c-6.0617 0.0835-12.153 1.0327-17.355 4.2525-3.2762 26.005-6.5325 52.085-6.8672 78.326 0.80058 3.6556-1.9124 11.031 3.5342 10.717 20.336 2.5304 41.396-1.2957 59.563-10.775 3.4515-21.051 7.0832-42.16 8.074-63.5 0.50235-5.4176 0.53159-11.733-6.5511-11.666-11.179-3.5055-22.647-6.3778-34.365-7.212-1.977-0.10917-4.0134-0.1715-6.0339-0.14367zm120.76 46.892s-29.294 20.384-70.137 13.188c5.0397 8.1546-7.4131 77.694-7.4131 77.694 17.311-16.714 71.172 4.7409 71.172 4.7409-4.2972-19.274 6.3787-95.623 6.3787-95.623zm-150.96 5.9477s-22.429 15.601-55.397 14.683v69.85c21.93 0.31949 49.018 11.091 49.018 11.091-4.2972-19.274 6.3787-95.623 6.3787-95.623zm218.57 28.474c-10.594 5.4812-34.216 14.909-64.046 9.6543 4.9038 7.9347-6.6653 73.505-7.2982 77.062 0.0831-4.1317 0.0839-8.2772 0-12.413 0.14957-5.8016-0.25333-12.557-7.7866-11.982-12.146-2.9364-24.564-5.1457-37.094-5.2007-8.4476 0.0974-17.519 0.94311-24.595 6.0052-1.0436 17.778-2.0694 35.596-2.2986 53.415h70.108c0.80635-9.7452 1.4542-19.509 1.6665-29.279 17.422-16.528 71.057 4.8559 71.057 4.8559-1.6783-7.5277-1.0762-23.779 0.28733-40.772v-51.346zm-144.87 2.4136s-29.294 20.384-70.137 13.188c4.9038 7.9347-6.6653 73.476-7.2982 77.033 0.0831-4.1317 0.0839-8.2484 0-12.384 0.14957-5.8016-0.25333-12.557-7.7866-11.982-12.146-2.9364-24.564-5.1457-37.094-5.2007-2.2341 0.0257-4.5086 0.0915-6.781 0.28733v53.185h50.455c0.57734-7.7717 1.0376-15.544 1.2068-23.331 17.422-16.528 71.057 4.8559 71.057 4.8559-4.2972-19.274 6.3787-95.652 6.3787-95.652zm102.35 85.624c-8.4476 0.0974-17.519 0.9431-24.595 6.0052-0.43992 7.494-0.88562 14.992-1.2642 22.498h40.513c13.487 0 24.684-9.4884 27.296-22.182-1.1421-0.84503-2.6957-1.2855-4.8559-1.1206-12.146-2.9364-24.564-5.1457-37.094-5.2007zm-150.96 5.919c-8.4476 0.0974-17.519 0.97182-24.595 6.0339-0.32377 5.5154-0.64892 11.028-0.94819 16.55h70.482c-3e-3 -1.7959-0.0211-3.6052-0.0575-5.4018 0.14957-5.8016-0.25332-12.557-7.7866-11.982-12.146-2.9364-24.564-5.1457-37.094-5.2006z" fill="none" opacity=".34286" stroke="#ac4311"/>
  <path d="m164.97 148.6v37.267c19.264 0.58205 38.682-4.5034 55.139-14.539 0.72698-7.5627 1.4619-15.148 2.0975-22.728h-57.236zm67.436 0c-0.9875 19.268-1.5861 38.571-0.54592 57.839 1.025 3.5343-1.1283 10.893 4.195 10.229 20.118 1.1502 40.521-3.9618 57.725-14.453 1.7141-17.832 3.5346-35.693 3.764-53.616h-65.138zm76.171 0c0.01 6.9934 0.16866 13.987 0.54593 20.975 1.025 3.5342-1.1283 10.922 4.195 10.258 20.118 1.1502 40.55-3.9618 57.753-14.453 0.5376-5.5925 1.0455-11.178 1.5516-16.78h-64.046zm74.505 0c-0.79804 17.289-1.1917 34.607-0.2586 51.892 1.025 3.5342-1.1283 10.922 4.195 10.258 17.894 1.0231 36.024-2.9139 51.92-11.177v-23.13c0-15.436-12.434-27.842-27.871-27.842h-27.986zm-6.235 16.493s-27.38 21.91-67.925 17.527c5.479 7.6706-2.2124 76.717-2.2124 76.717 15.889-17.533 70.137 0 70.137 0-5.479-18.629 0-94.244 0-94.244zm-150.96 5.9477s-24.257 19.385-60.914 18.016v70.597c21.466-7.1279 60.914 5.6029 60.914 5.6029-5.479-18.629 0-94.215 0-94.215zm73.7 30.888s-27.38 21.91-67.925 17.527c5.479 7.6707-2.2124 76.717-2.2124 76.717 15.889-17.533 70.137 0 70.137 0-5.479-18.629 0-94.244 0-94.244zm139.35 1.178c-11.705 5.9606-31.541 13.109-56.317 10.43 5.479 7.6707-2.2124 76.688-2.2124 76.688 11.258-12.423 41.699-7.265 58.529-3.1894v-83.929zm-111.11 52.581c-6.0617 0.0835-12.153 1.0039-17.355 4.2238-3.2762 26.005-6.5325 52.114-6.8672 78.355 0.80058 3.6556-1.9124 11.002 3.5342 10.689 20.336 2.5304 41.396-1.2669 59.563-10.746 3.4516-21.051 7.0832-42.16 8.074-63.5 0.50233-5.4176 0.53157-11.762-6.5511-11.694-11.179-3.5055-22.647-6.3491-34.365-7.1832-1.977-0.10916-4.0133-0.1715-6.0339-0.14367zm-150.96 5.9477c-4.0442 0.0557-8.0946 0.48565-11.895 1.724v92.233c17.533 0.61982 35.214-3.3183 50.771-11.436 3.4515-21.051 7.0832-42.16 8.074-63.5 0.50233-5.4176 0.53156-11.762-6.5511-11.694-11.179-3.5055-22.647-6.3491-34.365-7.1832-1.977-0.10916-4.0134-0.17151-6.0339-0.14367zm224.66 24.94c-6.0617 0.0835-12.153 1.0327-17.355 4.2525-3.2762 26.005-6.5325 52.085-6.8672 78.326 0.80059 3.6556-1.9124 11.031 3.5342 10.717 19.798 2.4635 40.264-1.1209 58.098-10.057v-76.803c-10.232-3.077-20.702-5.5039-31.376-6.2638-1.977-0.10915-4.0134-0.20023-6.0339-0.1724zm-150.96 5.9477c-6.0617 0.0835-12.153 1.0327-17.355 4.2525-3.2762 26.005-6.5325 52.085-6.8672 78.326 0.80058 3.6556-1.9124 11.031 3.5342 10.717 20.336 2.5304 41.396-1.2957 59.563-10.775 3.4515-21.051 7.0832-42.16 8.074-63.5 0.50235-5.4176 0.53159-11.733-6.5511-11.666-11.179-3.5055-22.647-6.3778-34.365-7.212-1.977-0.10917-4.0134-0.1715-6.0339-0.14367zm120.76 46.892s-29.294 20.384-70.137 13.188c5.0397 8.1546-7.4131 77.694-7.4131 77.694 17.311-16.714 71.172 4.7409 71.172 4.7409-4.2972-19.274 6.3787-95.623 6.3787-95.623zm-150.96 5.9477s-22.429 15.601-55.397 14.683v69.85c21.93 0.31949 49.018 11.091 49.018 11.091-4.2972-19.274 6.3787-95.623 6.3787-95.623zm218.57 28.474c-10.594 5.4812-34.216 14.909-64.046 9.6543 4.9038 7.9347-6.6653 73.505-7.2982 77.062 0.0831-4.1317 0.0839-8.2772 0-12.413 0.14957-5.8016-0.25333-12.557-7.7866-11.982-12.146-2.9364-24.564-5.1457-37.094-5.2007-8.4476 0.0974-17.519 0.94311-24.595 6.0052-1.0436 17.778-2.0694 35.596-2.2986 53.415h70.108c0.80635-9.7452 1.4542-19.509 1.6665-29.279 17.422-16.528 71.057 4.8559 71.057 4.8559-1.6783-7.5277-1.0762-23.779 0.28733-40.772v-51.346zm-144.87 2.4136s-29.294 20.384-70.137 13.188c4.9038 7.9347-6.6653 73.476-7.2982 77.033 0.0831-4.1317 0.0839-8.2484 0-12.384 0.14957-5.8016-0.25333-12.557-7.7866-11.982-12.146-2.9364-24.564-5.1457-37.094-5.2007-2.2341 0.0257-4.5086 0.0915-6.781 0.28733v53.185h50.455c0.57734-7.7717 1.0376-15.544 1.2068-23.331 17.422-16.528 71.057 4.8559 71.057 4.8559-4.2972-19.274 6.3787-95.652 6.3787-95.652zm102.35 85.624c-8.4476 0.0974-17.519 0.9431-24.595 6.0052-0.43992 7.494-0.88562 14.992-1.2642 22.498h40.513c13.487 0 24.684-9.4884 27.296-22.182-1.1421-0.84503-2.6957-1.2855-4.8559-1.1206-12.146-2.9364-24.564-5.1457-37.094-5.2007zm-150.96 5.919c-8.4476 0.0974-17.519 0.97182-24.595 6.0339-0.32377 5.5154-0.64892 11.028-0.94819 16.55h70.482c-3e-3 -1.7959-0.0211-3.6052-0.0575-5.4018 0.14957-5.8016-0.25332-12.557-7.7866-11.982-12.146-2.9364-24.564-5.1457-37.094-5.2006z" fill="none" opacity=".34286" stroke="#fff"/>
 </g>
</svg>
